<svg width="89" height="13" viewBox="0 0 89 13" fill="none" xmlns="http://www.w3.org/2000/svg">
<path d="M6.28 12L1.688 6.912V12H0.232V0.848H1.688V6.016L6.296 0.848H8.136L3.08 6.432L8.184 12H6.28ZM14.0821 3.072C15.1488 3.072 16.0128 3.39733 16.6741 4.048C17.3355 4.688 17.6661 5.616 17.6661 6.832V12H16.2261V7.04C16.2261 6.16533 16.0075 5.49867 15.5701 5.04C15.1328 4.57067 14.5355 4.336 13.7781 4.336C13.0101 4.336 12.3968 4.576 11.9381 5.056C11.4901 5.536 11.2661 6.23467 11.2661 7.152V12H9.81013V3.232H11.2661V4.48C11.5541 4.032 11.9435 3.68533 12.4341 3.44C12.9355 3.19467 13.4848 3.072 14.0821 3.072ZM23.8685 12.144C23.0472 12.144 22.3005 11.9573 21.6285 11.584C20.9672 11.2107 20.4445 10.6827 20.0605 10C19.6872 9.30667 19.5005 8.50667 19.5005 7.6C19.5005 6.704 19.6925 5.91467 20.0765 5.232C20.4712 4.53867 21.0045 4.01067 21.6765 3.648C22.3485 3.27467 23.1005 3.088 23.9325 3.088C24.7645 3.088 25.5165 3.27467 26.1885 3.648C26.8605 4.01067 27.3885 4.53333 27.7725 5.216C28.1672 5.89867 28.3645 6.69333 28.3645 7.6C28.3645 8.50667 28.1618 9.30667 27.7565 10C27.3618 10.6827 26.8232 11.2107 26.1405 11.584C25.4578 11.9573 24.7005 12.144 23.8685 12.144ZM23.8685 10.864C24.3912 10.864 24.8818 10.7413 25.3405 10.496C25.7992 10.2507 26.1672 9.88267 26.4445 9.392C26.7325 8.90133 26.8765 8.304 26.8765 7.6C26.8765 6.896 26.7378 6.29867 26.4605 5.808C26.1832 5.31733 25.8205 4.95467 25.3725 4.72C24.9245 4.47467 24.4392 4.352 23.9165 4.352C23.3832 4.352 22.8925 4.47467 22.4445 4.72C22.0072 4.95467 21.6552 5.31733 21.3885 5.808C21.1218 6.29867 20.9885 6.896 20.9885 7.6C20.9885 8.31467 21.1165 8.91733 21.3725 9.408C21.6392 9.89867 21.9912 10.2667 22.4285 10.512C22.8658 10.7467 23.3458 10.864 23.8685 10.864ZM41.9589 3.232L39.2229 12H37.7189L35.6069 5.04L33.4949 12H31.9909L29.2389 3.232H30.7269L32.7429 10.592L34.9189 3.232H36.4069L38.5349 10.608L40.5189 3.232H41.9589ZM58.2135 3.072C58.8962 3.072 59.5042 3.216 60.0375 3.504C60.5708 3.78133 60.9922 4.20267 61.3015 4.768C61.6108 5.33333 61.7655 6.02133 61.7655 6.832V12H60.3255V7.04C60.3255 6.16533 60.1068 5.49867 59.6695 5.04C59.2428 4.57067 58.6615 4.336 57.9255 4.336C57.1682 4.336 56.5655 4.58133 56.1175 5.072C55.6695 5.552 55.4455 6.25067 55.4455 7.168V12H54.0055V7.04C54.0055 6.16533 53.7868 5.49867 53.3495 5.04C52.9228 4.57067 52.3415 4.336 51.6055 4.336C50.8482 4.336 50.2455 4.58133 49.7975 5.072C49.3495 5.552 49.1255 6.25067 49.1255 7.168V12H47.6695V3.232H49.1255V4.496C49.4135 4.03733 49.7975 3.68533 50.2775 3.44C50.7682 3.19467 51.3068 3.072 51.8935 3.072C52.6295 3.072 53.2802 3.23733 53.8455 3.568C54.4108 3.89867 54.8322 4.384 55.1095 5.024C55.3548 4.40533 55.7602 3.92533 56.3255 3.584C56.8908 3.24267 57.5202 3.072 58.2135 3.072ZM67.9779 12.144C67.1565 12.144 66.4099 11.9573 65.7379 11.584C65.0765 11.2107 64.5539 10.6827 64.1699 10C63.7965 9.30667 63.6099 8.50667 63.6099 7.6C63.6099 6.704 63.8019 5.91467 64.1859 5.232C64.5805 4.53867 65.1139 4.01067 65.7859 3.648C66.4579 3.27467 67.2099 3.088 68.0419 3.088C68.8739 3.088 69.6259 3.27467 70.2979 3.648C70.9699 4.01067 71.4979 4.53333 71.8819 5.216C72.2765 5.89867 72.4739 6.69333 72.4739 7.6C72.4739 8.50667 72.2712 9.30667 71.8659 10C71.4712 10.6827 70.9325 11.2107 70.2499 11.584C69.5672 11.9573 68.8099 12.144 67.9779 12.144ZM67.9779 10.864C68.5005 10.864 68.9912 10.7413 69.4499 10.496C69.9085 10.2507 70.2765 9.88267 70.5539 9.392C70.8419 8.90133 70.9859 8.304 70.9859 7.6C70.9859 6.896 70.8472 6.29867 70.5699 5.808C70.2925 5.31733 69.9299 4.95467 69.4819 4.72C69.0339 4.47467 68.5485 4.352 68.0259 4.352C67.4925 4.352 67.0019 4.47467 66.5539 4.72C66.1165 4.95467 65.7645 5.31733 65.4979 5.808C65.2312 6.29867 65.0979 6.896 65.0979 7.6C65.0979 8.31467 65.2259 8.91733 65.4819 9.408C65.7485 9.89867 66.1005 10.2667 66.5379 10.512C66.9752 10.7467 67.4552 10.864 67.9779 10.864ZM75.8443 4.656C76.1003 4.15467 76.4629 3.76533 76.9323 3.488C77.4123 3.21067 77.9936 3.072 78.6763 3.072V4.576H78.2923C76.6603 4.576 75.8443 5.46133 75.8443 7.232V12H74.3883V3.232H75.8443V4.656ZM88.357 7.28C88.357 7.55733 88.341 7.85067 88.309 8.16H81.301C81.3543 9.024 81.6477 9.70133 82.181 10.192C82.725 10.672 83.381 10.912 84.149 10.912C84.7783 10.912 85.301 10.768 85.717 10.48C86.1437 10.1813 86.4423 9.78667 86.613 9.296H88.181C87.9463 10.1387 87.477 10.8267 86.773 11.36C86.069 11.8827 85.1943 12.144 84.149 12.144C83.317 12.144 82.5703 11.9573 81.909 11.584C81.2583 11.2107 80.7463 10.6827 80.373 10C79.9997 9.30667 79.813 8.50667 79.813 7.6C79.813 6.69333 79.9943 5.89867 80.357 5.216C80.7197 4.53333 81.2263 4.01067 81.877 3.648C82.5383 3.27467 83.2957 3.088 84.149 3.088C84.981 3.088 85.717 3.26933 86.357 3.632C86.997 3.99467 87.4877 4.496 87.829 5.136C88.181 5.76533 88.357 6.48 88.357 7.28ZM86.853 6.976C86.853 6.42133 86.7303 5.94667 86.485 5.552C86.2397 5.14667 85.9037 4.84267 85.477 4.64C85.061 4.42667 84.597 4.32 84.085 4.32C83.349 4.32 82.7197 4.55467 82.197 5.024C81.685 5.49333 81.3917 6.144 81.317 6.976H86.853Z" fill="white"/>
</svg>
